<!-- Generated by IcoMoon.io -->
<svg version="1.1" xmlns="http://www.w3.org/2000/svg" width="768" height="768" viewBox="0 0 768 768">
<g id="icomoon-ignore">
</g>
<path fill="#000" d="M387 594q72-64.5 106.5-97.5t75-78 56.25-79.5 15.75-67.5q0-48-32.25-79.5t-80.25-31.5q-37.5 0-69.75 21t-44.25 54h-60q-12-33-44.25-54t-69.75-21q-48 0-80.25 31.5t-32.25 79.5q0 33 15.75 67.5t56.25 79.5 75 78 106.5 97.5l3 3zM528 96q75 0 125.25 51t50.25 124.5q0 43.5-16.5 84.75t-60.75 92.25-80.25 85.5-115.5 106.5l-46.5 42-46.5-40.5q-103.5-93-149.25-139.5t-84.75-109.5-39-121.5q0-73.5 50.25-124.5t125.25-51q87 0 144 67.5 57-67.5 144-67.5z"></path>
</svg>
