<!-- Generated by IcoMoon.io -->
<svg version="1.1" xmlns="http://www.w3.org/2000/svg" width="320" height="448" viewBox="0 0 320 448">
<g id="icomoon-ignore">
</g>
<path fill="#000" d="M288 64h-256v310.5l128-122.75 22.25 21.25 105.75 101.5v-310.5zM291 32c3.75 0 7.5 0.75 11 2.25 11 4.25 18 14.5 18 25.75v322.25c0 11.25-7 21.5-18 25.75-3.5 1.5-7.25 2-11 2-7.75 0-15-2.75-20.75-8l-110.25-106-110.25 106c-5.75 5.25-13 8.25-20.75 8.25-3.75 0-7.5-0.75-11-2.25-11-4.25-18-14.5-18-25.75v-322.25c0-11.25 7-21.5 18-25.75 3.5-1.5 7.25-2.25 11-2.25h262z"></path>
</svg>
