<!-- Generated by IcoMoon.io -->
<svg version="1.1" xmlns="http://www.w3.org/2000/svg" width="768" height="768" viewBox="0 0 768 768">
<g id="icomoon-ignore">
</g>
<path fill="#000" d="M695.413 33.184c4.832-1.376 10.048-1.6 15.232-0.48 3.616 0.768 7.168 2.176 10.4 4.192 3.264 2.048 6.080 4.64 8.384 7.616 2.88 3.744 4.8 7.968 5.792 12.352s1.088 9.024 0.128 13.632c-0.288 1.344-0.672 2.72-1.12 4.032l-0.224 0.672-223.776 639.36c-2.816 8.064-8.832 14.944-17.216 18.688-16.16 7.168-35.072-0.096-42.24-16.256l-123.008-276.768-276.768-123.008c-7.776-3.456-14.176-10.016-17.216-18.656-5.824-16.672 2.944-34.944 19.648-40.768l639.328-223.776c0.864-0.32 1.728-0.608 2.624-0.864zM390.197 423.073l86.272 194.176 151.040-431.456zM582.229 140.512l-431.456 151.040 194.176 86.272z"></path>
</svg>
